# xmcd
#
# Track frame offsets: 
#        182
#        16945
#        34132
#        51607
#
# Disc length: 900 seconds
#
# Revision: 1
# Processed by: cddbd v1.5.2PL0 Copyright (c) Steve Scherf et al.
# Submitted via: ExactAudioCopy v0.99pb5
#
DISCID=2f038204
DTITLE=ROLAND KAISER - 20 HIT-SINGLES ORIGINAL
DYEAR=2001
DGENRE=Schlager
TTITLE0=Flieg' Mit Mir Zu Den Sternen (1984)
TTITLE1=In Diesem Teil Des Himmels Wohne Ich (1984)
TTITLE2=Amore Amore (1985)
TTITLE3=Zwei Endlose Stunden (1985)
EXTD=
EXTT0=
EXTT1=
EXTT2=
EXTT3=
PLAYORDER=
